<svg width="100" height="100" viewBox="0 0 100 100" fill="none" xmlns="http://www.w3.org/2000/svg">
<g clip-path="url(#clip0_2_10)">
<rect width="100" height="100" rx="20" fill="#059A88"/>
<path d="M34.9119 57.7273V38.0909H47.4574V73H35.5483V66.3636H35.1847C34.4271 68.5909 33.1013 70.3333 31.2074 71.5909C29.3134 72.8333 27.0634 73.4545 24.4574 73.4545C22.018 73.4545 19.8816 72.8939 18.0483 71.7727C16.2301 70.6515 14.8134 69.1061 13.7983 67.1364C12.7983 65.1667 12.2907 62.9091 12.2756 60.3636V38.0909H24.821V57.7273C24.8362 59.4545 25.2756 60.8106 26.1392 61.7955C27.018 62.7803 28.2453 63.2727 29.821 63.2727C30.8665 63.2727 31.768 63.053 32.5256 62.6136C33.2983 62.1591 33.8892 61.5227 34.2983 60.7045C34.7225 59.8712 34.9271 58.8788 34.9119 57.7273ZM66.4744 73.4545C63.9896 73.4545 61.7017 72.803 59.6108 71.5C57.535 70.197 55.8684 68.2197 54.6108 65.5682C53.3684 62.9167 52.7472 59.5758 52.7472 55.5455C52.7472 51.3333 53.3987 47.9091 54.7017 45.2727C56.0199 42.6364 57.7169 40.7045 59.7926 39.4773C61.8835 38.25 64.0805 37.6364 66.3835 37.6364C68.1108 37.6364 69.6259 37.9394 70.929 38.5455C72.232 39.1364 73.3229 39.9318 74.2017 40.9318C75.0805 41.9167 75.7472 43 76.2017 44.1818H76.3835V26.4545H88.929V73H76.4744V67.2727H76.2017C75.7169 68.4545 75.0199 69.5152 74.1108 70.4545C73.2169 71.3788 72.1259 72.1136 70.8381 72.6591C69.5653 73.1894 68.1108 73.4545 66.4744 73.4545ZM71.1108 63.8182C72.2623 63.8182 73.2472 63.4848 74.0653 62.8182C74.8987 62.1364 75.535 61.1818 75.9744 59.9545C76.429 58.7121 76.6562 57.2424 76.6562 55.5455C76.6562 53.8182 76.429 52.3409 75.9744 51.1136C75.535 49.8712 74.8987 48.9242 74.0653 48.2727C73.2472 47.6061 72.2623 47.2727 71.1108 47.2727C69.9593 47.2727 68.9744 47.6061 68.1562 48.2727C67.3532 48.9242 66.732 49.8712 66.2926 51.1136C65.8684 52.3409 65.6562 53.8182 65.6562 55.5455C65.6562 57.2727 65.8684 58.7576 66.2926 60C66.732 61.2273 67.3532 62.1742 68.1562 62.8409C68.9744 63.4924 69.9593 63.8182 71.1108 63.8182Z" fill="white"/>
</g>
<defs>
<clipPath id="clip0_2_10">
<rect width="100" height="100" fill="white"/>
</clipPath>
</defs>
</svg>
